<mxfile host="app.diagrams.net" modified="2020-12-09T16:37:26.546Z" agent="5.0 (X11)" etag="EYMfEJ42mSWIjwbVI2iN" version="14.0.0" type="github">
  <diagram id="DD-f59DJuioDp3u5M8Je" name="Page-1">
    <mxGraphModel dx="1368" dy="811" grid="1" gridSize="10" guides="1" tooltips="1" connect="1" arrows="1" fold="1" page="1" pageScale="1" pageWidth="850" pageHeight="1100" math="0" shadow="0">
      <root>
        <mxCell id="0" />
        <mxCell id="1" parent="0" />
        <mxCell id="UbS6X-hIHrl9fvJGj8FC-3" style="edgeStyle=orthogonalEdgeStyle;rounded=0;orthogonalLoop=1;jettySize=auto;html=1;" edge="1" parent="1" source="UbS6X-hIHrl9fvJGj8FC-1">
          <mxGeometry relative="1" as="geometry">
            <mxPoint x="462.5" y="570" as="targetPoint" />
          </mxGeometry>
        </mxCell>
        <mxCell id="UbS6X-hIHrl9fvJGj8FC-1" value="&lt;div&gt;TEST&lt;/div&gt;&lt;div&gt;&lt;br&gt;&lt;/div&gt;" style="whiteSpace=wrap;html=1;aspect=fixed;" vertex="1" parent="1">
          <mxGeometry x="345" y="200" width="235" height="235" as="geometry" />
        </mxCell>
        <mxCell id="UbS6X-hIHrl9fvJGj8FC-4" value="&lt;div&gt;CHECK&lt;/div&gt;&lt;div&gt;&lt;br&gt;&lt;/div&gt;" style="rounded=1;whiteSpace=wrap;html=1;" vertex="1" parent="1">
          <mxGeometry x="402.5" y="570" width="120" height="60" as="geometry" />
        </mxCell>
      </root>
    </mxGraphModel>
  </diagram>
</mxfile>
